<?xml version="1.0" encoding="UTF-8"?>
<svg width="1323px" height="251px" viewBox="0 0 1323 251" version="1.1" xmlns="http://www.w3.org/2000/svg" xmlns:xlink="http://www.w3.org/1999/xlink">
    <g stroke="none" stroke-width="1" fill="none" fill-rule="evenodd">
        <path d="M716.96538,34 L669.781853,34 L663.251692,67.0962343 L631.979769,67.0962343 L631.069401,91.4560669 L658.548125,91.4560669 L629.213664,242 L677.081833,242 L705.82913,91.4560669 L723.837655,91.4560669 L719.431443,221.709694 L702.358366,241.707113 L747.162846,241.707113 C751.420446,241.707113 754.991282,240.380806 757.924851,237.719598 C760.84333,235.07208 762.349458,231.765986 762.467444,227.73567 L767.96519,67.0962343 L710.53864,67.0962343 L716.96538,34 Z M552.765648,82.7128852 L552.028636,108.813725 L561.979959,108.813725 L557.521366,242 L605.832788,242 L609.998855,108.813725 L620.234352,108.813725 L620.971364,82.7128852 L611.019581,82.7128852 L612.638052,35 L564.181236,35 L562.709029,82.7128852 L552.765648,82.7128852 Z M650.751928,110 L626.110729,110 L610.248072,181 L634.889271,181 L650.751928,110 Z M791.139431,110 L770.040508,110 L772.860569,181 L793.959492,181 L791.139431,110 Z M904.280391,34 L891.173621,115.520833 L933.701864,115.520833 L939.207264,82.1125 L944.606755,82.1125 L939.281649,243 L990.330645,243 L991.774381,199.041667 L1047.75262,199.041667 L1048.51968,173.201389 L992.532176,173.201389 L993.702121,140.430556 L1044.11019,140.430556 L1044.90575,114.883333 L994.488565,114.883333 L995.658511,82.1125 L1057.20281,82.1125 L1057.96987,56.2722222 L943.509255,56.2722222 L947.27722,34 L904.280391,34 Z M883.958401,34.2262092 L815.091029,47.8930938 L814.041193,79.2609324 L831.130953,76.0368421 L825.205512,243 L876.692604,243 L882.882485,66.3733098 L882.882431,66.3748835 L883.958401,34.2262092 Z M1178.85723,214.823789 L1178.03326,240 L1321.14277,240 L1321.96674,214.823789 L1305.6587,214.823789 L1311.51858,43 L1196.19749,43 L1189.99377,214.823789 L1178.85723,214.823789 Z M1084.43817,102.296354 L1083.65315,128.965517 L1105.31909,128.965517 L1082.81454,169.342496 L1082.02987,196 L1167.79396,196 L1168.55725,170.068966 L1132.8928,170.068966 L1170.38017,103.034483 L1134.80766,103.034483 L1172.29503,36 L1119.49419,36 L1084.43817,102.296354 Z M1166.92084,234.393399 L1167.95714,208.069082 L1081.7965,213.606192 L1081.03148,239.931415 L1166.92084,234.393399 Z M1265.01216,208 L1228.97051,208 L1229.98784,173 L1266.02949,173 L1265.01216,208 Z M1267.00459,152 L1230.96243,152 L1231.99541,124 L1268.03757,124 L1267.00459,152 Z M1232.96638,104 L1233.99172,73 L1270.03362,73 L1269.00828,104 L1232.96638,104 Z" id="协作组" stroke="#FFFFFF" stroke-width="2" fill="#333333" fill-rule="nonzero"></path>
        <path d="M451.769912,174.018775 C463.923365,180.823981 470,191.712147 470,206.683601 C470,218.755444 465.545767,228.992688 456.637168,237.395638 C447.728569,245.798588 436.902719,250 424.159292,250 C414.660719,250 407.012427,247.167884 399.40177,243.321463 C390.611165,238.82411 383.775827,233.342164 380.707965,225.057565 C380.235986,223.814875 380,222.483442 380,221.063225 C380,217.749386 381.32742,214.997757 383.982301,212.808256 C386.460189,210.796282 389.292019,209.79031 392.477876,209.79031 C396.194709,209.79031 399.17403,211.26968 401.415929,214.228465 L404.147582,217.583176 C408.204994,221.041922 409.82807,221.950856 412.654867,223.239697 C416.613129,225.044413 420.645392,226.101419 424.159292,226.101419 C429.76404,226.101419 434.675495,225.323871 438.893805,221.950856 C443.112115,218.577841 445.221239,214.524366 445.221239,209.79031 C445.221239,195.202907 435.535982,186.879422 416.16518,184.819613 L415.575221,184.759112 C406.902612,183.930652 402.566372,180.291401 402.566372,173.841249 C402.566372,168.929665 405.92917,165.349589 412.654867,163.100912 C419.026581,161.680695 424.462505,161.139846 430.775221,159.660454 C434.787041,158.417764 438.702055,155.881522 440.707965,153.869548 C442.713874,151.857574 443.746312,149.460994 443.80531,146.679736 C444.041299,137.862556 438.980601,131.636164 423.185841,133.454032 C418.735835,133.966197 413.845153,135.109406 408.550674,138.420201 L407.2988,139.215308 C402.221619,142.416346 398.726771,144.016843 396.814159,144.016843 C393.451311,144.016843 390.589982,142.803759 388.230088,140.377555 C385.870195,137.951351 384.690265,135.199722 384.690265,132.122586 C384.690265,127.092651 389.645968,122.092379 399.557522,117.121619 C408.407124,112.683442 415.613775,111.864979 421.150442,111.37332 C438.893805,109.7977 445.309694,113.363952 453.451327,119.163171 C462.359927,125.554147 466.814159,134.667069 466.814159,146.50221 C466.814159,153.011537 465.560485,157.650242 463.053097,162.236359 C460.54571,166.822477 456.784686,171.355868 451.769912,174.018775 Z" id="3" stroke="#195E96" stroke-width="2" fill="#195E96" fill-rule="nonzero"></path>
        <path d="M63.8381972,222.906234 L63.8381972,94.4007495 L21.1035363,94.4007495 C9.44837497,94.4007495 0,84.9581327 0,73.3100745 C0,61.6620166 9.44837497,52.2193995 21.1035363,52.2193995 L84.9417334,52.2193995 C96.5968947,52.2193995 106.04527,61.6620166 106.04527,73.3100745 L106.04527,167.47994 L218.78036,40.893707 C224.601142,34.3375661 233.872586,32.0626169 242.069666,35.1791717 C250.266749,38.2957266 255.680761,46.1541286 255.669342,54.9190059 L255.669342,168.745381 L404.006098,7.211899 C409.048287,1.44633038 416.821236,-1.13507882 424.313477,0.467785823 C431.805722,2.0706508 437.840091,7.60595076 440.078697,14.9291481 C442.317302,22.2523454 440.408422,30.2128361 435.091607,35.7264916 L250.098008,237.16353 C244.216196,243.573206 235.00067,245.717405 226.890887,242.563192 C218.781104,239.408975 213.440232,231.603215 213.441166,222.906234 L213.441166,110.3453 L100.706075,236.931533 C96.6976177,241.422473 90.963435,243.992461 84.9417334,243.996909 C73.2865721,243.996909 63.8381972,234.55429 63.8381972,222.906234 Z" id="w" fill="#195E96" fill-rule="nonzero"></path>
    </g>
</svg>